<?xml version="1.0" standalone="no"?>
<!DOCTYPE svg PUBLIC "-//W3C//DTD SVG 20010904//EN"
 "http://www.w3.org/TR/2001/REC-SVG-20010904/DTD/svg10.dtd">
<svg version="1.0" xmlns="http://www.w3.org/2000/svg"
 width="900.000000pt" height="900.000000pt" viewBox="0 0 900.000000 900.000000"
 preserveAspectRatio="xMidYMid meet">
<metadata>
Created by potrace 1.11, written by Peter Selinger 2001-2013
</metadata>
<g transform="translate(0.000000,900.000000) scale(0.100000,-0.100000)"
fill="#000000" stroke="none">
<path d="M3547 7544 c-2 -3 -55 -9 -118 -14 -63 -5 -139 -14 -169 -20 -30 -6
-70 -13 -88 -17 -18 -3 -35 -9 -38 -14 -3 -5 -16 -9 -29 -9 -13 0 -27 -4 -30
-10 -3 -5 -17 -10 -31 -10 -13 0 -24 -4 -24 -8 0 -5 -22 -15 -50 -22 -27 -7
-50 -17 -50 -22 0 -4 -6 -8 -14 -8 -13 0 -94 -38 -106 -50 -3 -3 -16 -11 -30
-19 -14 -8 -34 -19 -44 -25 -11 -6 -29 -19 -40 -28 -11 -10 -26 -18 -33 -18
-7 0 -13 -4 -13 -8 0 -4 -13 -16 -30 -25 -16 -10 -35 -23 -42 -30 -7 -7 -29
-24 -48 -37 -44 -31 -257 -245 -296 -297 -16 -21 -39 -48 -52 -61 -12 -13 -22
-27 -22 -31 0 -4 -11 -21 -25 -37 -14 -16 -25 -35 -25 -41 0 -7 -4 -13 -9 -13
-5 0 -14 -13 -21 -30 -7 -16 -16 -30 -21 -30 -5 0 -9 -9 -9 -20 0 -11 -4 -20
-9 -20 -5 0 -11 -8 -15 -17 -3 -10 -30 -63 -59 -118 -43 -79 -58 -99 -73 -97
-10 2 -41 8 -69 13 -144 28 -434 28 -575 -1 -30 -6 -70 -13 -87 -17 -18 -3
-33 -9 -33 -14 0 -5 -11 -9 -24 -9 -14 0 -28 -4 -31 -10 -3 -5 -15 -10 -26
-10 -10 0 -19 -4 -19 -10 0 -5 -9 -10 -20 -10 -11 0 -20 -3 -20 -7 0 -5 -23
-19 -50 -32 -28 -14 -50 -28 -50 -32 0 -4 -9 -11 -21 -14 -24 -8 -219 -201
-219 -217 0 -6 -8 -18 -18 -27 -20 -19 -45 -60 -70 -113 -9 -21 -20 -38 -24
-38 -5 0 -8 -6 -8 -13 0 -7 -9 -32 -20 -55 -11 -22 -20 -48 -20 -57 0 -8 -4
-15 -10 -15 -5 0 -10 -11 -10 -24 0 -14 -4 -28 -10 -31 -5 -3 -10 -17 -10 -30
0 -13 -4 -26 -9 -29 -5 -3 -11 -20 -14 -38 -3 -18 -11 -53 -17 -78 -28 -109
-33 -167 -33 -355 1 -206 8 -303 24 -319 5 -6 9 -22 9 -36 0 -14 4 -30 8 -36
5 -5 15 -29 22 -54 8 -25 17 -47 20 -50 3 -3 16 -26 29 -52 13 -27 28 -48 33
-48 4 0 8 -6 8 -13 0 -7 8 -22 18 -33 10 -10 28 -35 42 -54 29 -44 215 -230
229 -230 5 0 16 -6 23 -12 19 -18 69 -48 91 -55 9 -3 17 -9 17 -14 0 -5 9 -9
20 -9 11 0 20 -4 20 -10 0 -5 9 -10 20 -10 11 0 20 -4 20 -10 0 -5 7 -10 15
-10 8 0 24 -5 35 -10 11 -5 29 -14 40 -20 11 -5 27 -10 35 -10 8 0 15 -4 15
-10 0 -5 11 -10 24 -10 14 0 28 -4 31 -10 3 -6 17 -10 30 -10 13 0 27 -5 30
-10 3 -6 19 -10 35 -10 16 0 32 -5 35 -10 3 -5 21 -10 40 -10 19 0 37 -4 40
-10 3 -6 23 -10 44 -10 20 0 41 -4 47 -9 5 -5 34 -12 64 -15 30 -4 89 -11 130
-16 41 -6 143 -14 225 -19 255 -15 281 -19 296 -50 8 -14 22 -35 31 -45 10
-11 18 -25 18 -31 0 -6 9 -17 20 -25 11 -8 20 -19 20 -25 0 -6 8 -20 18 -31
10 -10 29 -35 42 -54 14 -19 37 -48 52 -64 16 -16 28 -33 28 -38 0 -6 12 -22
28 -36 15 -15 43 -47 62 -72 19 -25 51 -61 70 -80 19 -19 64 -69 100 -110 83
-95 149 -161 230 -230 35 -30 85 -75 110 -100 25 -25 61 -57 80 -70 19 -13 46
-36 60 -50 14 -14 41 -37 60 -50 19 -14 45 -35 58 -47 13 -13 27 -23 31 -23 5
0 26 -16 47 -35 21 -19 42 -35 46 -35 5 0 22 -13 40 -30 17 -16 36 -30 42 -30
6 0 18 -9 26 -20 8 -11 19 -20 25 -20 5 0 26 -14 45 -30 19 -16 39 -30 43 -30
4 0 17 -9 29 -20 12 -11 28 -20 35 -20 7 0 13 -4 13 -8 0 -5 12 -15 28 -23 15
-8 36 -22 46 -31 11 -10 26 -18 33 -18 7 0 13 -4 13 -8 0 -5 12 -15 28 -23 15
-8 36 -22 46 -31 11 -10 26 -18 33 -18 7 0 13 -4 13 -10 0 -5 6 -10 13 -10 7
0 23 -9 35 -20 12 -11 26 -20 32 -20 6 0 20 -9 32 -20 12 -11 28 -20 35 -20 7
0 13 -4 13 -9 0 -5 8 -11 18 -14 17 -6 72 -37 82 -47 3 -3 14 -10 25 -16 48
-26 70 -39 75 -44 25 -25 182 -41 195 -20 3 5 19 10 36 10 16 0 29 5 29 10 0
6 7 10 15 10 8 0 24 5 35 10 11 6 29 15 40 20 11 6 27 10 35 10 8 0 15 5 15
10 0 6 6 10 13 10 12 0 80 29 119 50 10 6 25 10 33 10 8 0 15 5 15 10 0 6 9
10 20 10 11 0 20 5 20 10 0 6 9 10 20 10 11 0 20 5 20 10 0 6 6 10 13 10 15 0
261 122 265 132 2 5 12 8 23 8 10 0 19 5 19 10 0 6 9 10 20 10 11 0 20 3 20 8
0 4 23 18 50 31 28 14 50 29 50 33 0 4 9 8 20 8 11 0 20 4 20 9 0 5 8 11 18
14 17 6 72 37 82 47 10 10 65 41 83 47 9 3 17 9 17 14 0 5 6 9 13 9 7 0 23 9
35 20 12 11 28 20 37 20 8 0 15 4 15 8 0 5 12 15 28 23 15 8 36 22 46 32 11 9
26 17 33 17 7 0 13 4 13 8 0 5 12 15 28 23 15 8 34 22 43 31 9 10 21 18 26 18
5 0 18 8 29 18 10 10 35 28 54 42 19 13 37 27 40 30 3 3 21 17 40 30 19 13 42
31 50 40 8 9 31 27 50 40 19 13 42 31 50 40 8 9 31 27 50 40 19 13 38 29 42
34 5 7 11 7 20 -2 6 -6 22 -12 35 -12 13 0 23 -4 23 -10 0 -5 10 -10 23 -10
13 0 27 -4 33 -8 5 -5 43 -19 84 -31 41 -13 83 -27 92 -32 10 -5 29 -9 43 -9
14 0 25 -4 25 -9 0 -5 16 -12 35 -15 19 -3 51 -9 70 -12 19 -3 38 -10 41 -15
3 -5 22 -9 43 -9 20 0 41 -4 47 -9 10 -10 49 -15 239 -32 157 -14 171 -14 300
-1 158 16 199 23 210 33 5 5 24 9 42 9 18 0 33 5 33 10 0 6 14 10 30 10 17 0
30 5 30 10 0 6 9 10 20 10 11 0 20 5 20 10 0 6 9 10 20 10 11 0 20 5 20 10 0
6 9 10 20 10 11 0 20 5 20 10 0 6 9 10 20 10 11 0 20 5 20 10 0 6 6 10 13 10
6 0 25 11 41 25 16 14 33 25 37 25 12 0 180 169 209 210 13 19 32 44 42 54 10
11 18 25 18 32 0 7 4 14 8 16 5 2 33 53 62 113 29 61 56 118 61 127 5 10 9 27
9 38 0 11 5 20 10 20 6 0 10 11 10 24 0 14 5 28 10 31 6 3 10 19 10 35 0 16 4
31 9 34 5 3 12 20 15 38 4 18 11 56 17 83 22 109 33 215 33 325 0 144 -20 298
-46 360 -6 14 -14 34 -18 45 -11 29 -54 119 -60 125 -3 3 -11 17 -19 33 -8 15
-18 27 -23 27 -4 0 -8 6 -8 14 0 18 -146 167 -188 192 -18 10 -32 21 -32 25 0
4 -13 12 -30 19 -16 7 -30 16 -30 21 0 5 -9 9 -19 9 -11 0 -21 3 -23 8 -4 10
-87 52 -104 52 -8 0 -14 3 -14 8 0 4 -35 18 -78 30 -42 13 -85 28 -94 33 -10
5 -25 9 -35 9 -9 0 -32 6 -50 12 -31 11 -34 16 -29 43 12 69 16 369 7 485 -10
122 -18 179 -41 270 -6 25 -14 57 -17 73 -3 15 -9 30 -14 33 -5 3 -9 16 -9 29
0 13 -4 27 -10 30 -5 3 -10 13 -10 21 0 8 -9 34 -20 56 -11 23 -20 48 -20 55
0 7 -4 13 -10 13 -5 0 -10 9 -10 20 0 11 -4 20 -9 20 -5 0 -11 8 -14 18 -6 18
-38 73 -47 82 -3 3 -17 21 -30 40 -13 19 -27 37 -30 40 -3 3 -17 21 -30 40
-32 46 -169 180 -184 180 -6 0 -18 9 -26 20 -8 11 -19 20 -25 20 -6 0 -20 8
-31 18 -25 22 -74 52 -96 59 -10 3 -18 9 -18 14 0 5 -9 9 -20 9 -11 0 -20 4
-20 8 0 5 -22 15 -50 22 -27 7 -50 17 -50 22 0 4 -11 8 -24 8 -14 0 -27 4 -30
9 -3 5 -20 11 -38 14 -18 3 -53 11 -78 17 -53 14 -241 33 -320 33 -48 0 -123
-6 -330 -29 -30 -3 -59 -10 -64 -15 -6 -5 -25 -9 -43 -9 -18 0 -33 -4 -33 -10
0 -5 -10 -10 -22 -10 -23 0 -81 -16 -110 -31 -10 -5 -26 -9 -36 -9 -10 0 -22
-4 -28 -8 -5 -4 -27 -14 -49 -21 -45 -14 -88 -32 -159 -67 -28 -13 -56 -24
-63 -24 -7 0 -13 -4 -13 -10 0 -5 -9 -10 -20 -10 -11 0 -20 -4 -20 -10 0 -5
-9 -10 -19 -10 -11 0 -21 -3 -23 -7 -3 -7 -55 -37 -115 -67 -13 -6 -23 -14
-23 -18 0 -5 -9 -8 -20 -8 -11 0 -20 -4 -20 -9 0 -5 -13 -14 -30 -21 -16 -7
-30 -16 -30 -21 0 -5 -5 -9 -10 -9 -13 0 -164 -100 -168 -112 -2 -4 -9 -8 -16
-8 -7 0 -22 -9 -34 -21 -20 -18 -24 -18 -37 -5 -8 8 -15 20 -15 26 0 6 -9 30
-20 52 -11 23 -20 48 -20 55 0 7 -4 13 -10 13 -5 0 -10 6 -10 14 0 16 -62 140
-72 144 -5 2 -8 12 -8 23 0 10 -4 19 -9 19 -5 0 -14 14 -21 30 -7 17 -16 30
-20 30 -4 0 -13 14 -20 30 -7 17 -15 30 -19 30 -4 0 -15 14 -25 30 -9 17 -27
41 -39 53 -13 12 -34 38 -47 57 -32 45 -155 168 -200 200 -19 13 -41 30 -48
37 -7 7 -17 13 -22 13 -5 0 -15 6 -22 13 -13 11 -33 24 -83 51 -11 6 -22 13
-25 16 -12 12 -93 50 -106 50 -8 0 -14 3 -14 8 0 4 -35 18 -78 31 -42 12 -86
27 -97 31 -25 11 -75 18 -200 30 -55 5 -108 11 -117 14 -9 2 -19 2 -21 0z
m186 -549 c26 -4 47 -11 47 -16 0 -5 14 -9 30 -9 17 0 30 -4 30 -10 0 -5 6
-10 14 -10 17 0 100 -42 104 -52 2 -5 9 -8 16 -8 7 0 21 -8 32 -18 10 -10 35
-29 54 -42 45 -32 109 -95 140 -140 13 -19 32 -42 42 -51 10 -9 18 -21 18 -26
0 -5 8 -18 18 -29 22 -25 52 -74 59 -96 3 -10 9 -18 14 -18 5 0 9 -9 9 -20 0
-11 5 -20 10 -20 6 0 10 -9 10 -20 0 -11 5 -20 10 -20 6 0 10 -7 10 -15 0 -8
4 -23 9 -33 5 -9 14 -30 21 -47 7 -16 16 -38 21 -47 5 -10 9 -27 9 -38 0 -11
5 -20 10 -20 6 0 10 -13 10 -30 0 -16 5 -30 10 -30 6 0 10 -13 10 -30 0 -16 5
-30 10 -30 6 0 10 -15 10 -34 0 -19 5 -38 10 -41 6 -3 10 -21 10 -40 0 -19 4
-36 9 -39 4 -3 11 -19 14 -35 7 -32 97 -131 121 -131 8 0 16 -5 18 -11 3 -8
35 -12 89 -13 84 -1 123 9 157 42 7 6 17 12 21 12 4 0 22 15 41 33 19 17 51
43 70 57 19 13 42 31 50 40 8 9 31 27 50 40 19 14 44 32 54 42 11 10 26 18 33
18 7 0 13 3 13 8 0 4 18 18 40 32 22 14 40 28 40 32 0 5 6 8 13 8 7 0 22 8 33
18 19 16 39 29 89 56 11 6 22 13 25 16 10 10 65 41 83 47 9 3 17 9 17 14 0 5
9 9 20 9 11 0 20 5 20 10 0 6 9 10 20 10 11 0 20 5 20 10 0 6 9 10 20 10 11 0
20 5 20 10 0 6 9 10 20 10 11 0 20 5 20 10 0 6 9 10 20 10 11 0 20 5 20 10 0
6 9 10 19 10 11 0 23 5 26 10 3 6 17 10 31 10 13 0 24 5 24 10 0 6 11 10 24
10 14 0 28 5 31 10 3 6 17 10 30 10 13 0 27 5 30 10 3 6 17 10 30 10 13 0 26
4 29 9 3 5 20 11 38 14 18 4 58 11 88 18 73 15 385 23 430 10 124 -35 190 -57
190 -63 0 -5 9 -8 20 -8 11 0 20 -4 20 -9 0 -5 14 -14 30 -21 17 -7 30 -15 30
-19 0 -4 14 -15 32 -25 32 -19 118 -104 118 -116 0 -4 11 -20 25 -36 14 -16
25 -35 25 -41 0 -7 4 -13 8 -13 10 0 65 -117 82 -175 7 -22 16 -48 21 -57 5
-10 9 -33 9 -52 0 -19 4 -37 9 -40 9 -6 24 -174 24 -266 0 -113 -16 -270 -27
-270 -6 -1 -36 -3 -66 -5 -30 -3 -138 -9 -240 -15 -188 -10 -306 -21 -460 -40
-175 -21 -222 -29 -382 -60 -29 -6 -75 -15 -103 -20 -69 -13 -141 -27 -200
-40 -81 -18 -147 -31 -188 -37 -20 -3 -40 -9 -43 -14 -3 -5 -20 -9 -39 -9 -19
0 -37 -4 -40 -10 -3 -5 -24 -10 -46 -10 -21 0 -39 -4 -39 -10 0 -5 -15 -10
-34 -10 -19 0 -37 -4 -40 -9 -3 -5 -20 -11 -38 -14 -18 -3 -53 -11 -78 -17
-25 -6 -60 -14 -78 -17 -18 -3 -35 -9 -38 -14 -3 -5 -18 -9 -34 -9 -16 0 -32
-4 -35 -10 -3 -5 -16 -10 -27 -10 -23 0 -81 -17 -110 -31 -10 -5 -27 -9 -38
-9 -11 0 -28 -4 -38 -9 -29 -15 -87 -31 -110 -31 -12 0 -22 -4 -22 -10 0 -5
-13 -10 -29 -10 -17 0 -33 -4 -36 -10 -13 -22 -61 -10 -99 25 -21 19 -42 35
-47 35 -4 0 -18 10 -31 23 -13 12 -39 33 -58 47 -19 13 -42 31 -50 40 -8 9
-31 27 -50 40 -19 13 -37 27 -40 30 -3 3 -21 17 -40 30 -19 13 -42 32 -51 42
-9 10 -21 18 -26 18 -6 0 -24 14 -41 30 -18 17 -36 30 -40 30 -5 0 -17 8 -28
18 -10 10 -35 28 -54 42 -19 13 -37 27 -40 30 -3 3 -21 17 -40 30 -19 13 -41
30 -48 37 -7 7 -17 13 -21 13 -4 0 -21 11 -37 25 -16 14 -33 25 -38 25 -5 0
-16 8 -25 18 -9 9 -28 23 -43 31 -16 8 -28 18 -28 23 0 4 -6 8 -12 8 -7 0 -29
14 -48 30 -19 16 -39 30 -43 30 -4 0 -17 9 -29 20 -12 11 -28 20 -35 20 -7 0
-13 4 -13 8 0 5 -12 15 -27 23 -16 8 -37 22 -47 32 -11 9 -26 17 -33 17 -7 0
-13 5 -13 10 0 6 -6 10 -13 10 -7 0 -23 9 -35 20 -12 11 -26 20 -32 20 -6 0
-20 9 -32 20 -12 11 -28 20 -35 20 -7 0 -13 5 -13 10 0 6 -9 10 -20 10 -11 0
-20 3 -20 8 0 4 -21 18 -47 32 -27 13 -50 27 -53 30 -6 6 -85 49 -117 65 -13
5 -23 13 -23 18 0 4 -9 7 -20 7 -11 0 -20 5 -20 10 0 6 -9 10 -20 10 -11 0
-20 3 -20 8 0 4 -10 12 -23 18 -36 17 -270 135 -289 145 -10 5 -25 9 -33 9 -8
0 -15 4 -15 9 0 5 -10 11 -21 13 -40 6 -45 32 -19 85 14 26 27 50 30 53 3 3
11 15 18 28 31 55 38 67 55 86 9 11 17 24 17 29 0 5 8 17 18 26 10 9 29 32 42
51 34 48 212 224 249 246 17 10 31 21 31 25 0 4 14 12 30 19 17 7 30 16 30 20
0 4 14 13 30 20 17 7 30 16 30 21 0 5 9 9 20 9 11 0 20 3 20 8 0 8 49 32 67
32 7 0 13 4 13 8 0 4 21 14 48 21 26 8 54 18 62 21 30 15 87 30 111 30 13 0
31 5 39 10 16 11 248 7 333 -5z m-2040 -1161 l49 -6 -6 -57 c-31 -293 -34
-386 -17 -581 18 -220 22 -255 32 -265 5 -5 9 -28 9 -51 0 -24 4 -45 9 -48 5
-3 11 -23 14 -43 7 -51 17 -94 27 -118 4 -11 22 -67 41 -125 18 -58 36 -109
41 -115 4 -5 8 -19 8 -32 0 -13 5 -23 10 -23 6 0 10 -5 10 -11 0 -38 -561 62
-578 103 -2 4 -10 8 -18 8 -8 0 -22 4 -32 9 -9 5 -37 18 -62 31 -25 12 -63 31
-85 43 -45 25 -185 162 -185 182 0 7 -3 15 -7 17 -11 4 -48 85 -62 133 -15 49
-9 318 8 390 7 28 15 65 18 83 3 17 9 32 14 32 5 0 9 14 9 30 0 17 5 30 10 30
6 0 10 7 10 15 0 22 38 102 74 155 36 55 133 150 152 150 8 0 14 5 14 10 0 6
9 10 20 10 11 0 20 3 20 8 0 10 73 32 107 32 16 0 35 5 43 11 15 10 206 6 303
-7z m615 -193 c9 -5 62 -31 117 -58 143 -70 229 -117 233 -125 2 -5 12 -8 23
-8 10 0 19 -3 19 -7 0 -5 10 -13 23 -18 31 -15 111 -59 117 -65 3 -3 15 -11
28 -17 12 -7 32 -19 45 -25 12 -7 24 -15 27 -18 10 -10 65 -41 83 -47 9 -3 17
-9 17 -14 0 -5 6 -9 13 -9 7 0 23 -9 35 -20 12 -11 24 -20 27 -20 7 0 96 -59
105 -69 3 -3 17 -12 33 -20 15 -8 27 -18 27 -23 0 -4 6 -8 13 -8 6 0 25 -11
41 -25 16 -14 32 -25 36 -25 4 0 20 -11 36 -25 16 -14 34 -25 39 -25 6 0 17
-9 25 -20 8 -11 19 -20 25 -20 5 0 26 -14 45 -30 19 -16 40 -30 45 -30 6 0 17
-9 25 -20 8 -11 19 -20 25 -20 6 0 20 -8 31 -18 10 -10 35 -28 54 -42 19 -13
37 -27 40 -30 3 -3 21 -17 40 -30 19 -13 37 -27 40 -30 3 -3 21 -17 40 -30 19
-14 46 -35 59 -48 26 -26 20 -37 -29 -47 -14 -3 -39 -10 -56 -15 -17 -6 -42
-10 -55 -10 -14 0 -29 -4 -34 -9 -6 -5 -28 -11 -50 -14 -22 -3 -61 -10 -87
-16 -191 -43 -208 -46 -420 -81 -226 -37 -669 -78 -705 -66 -13 5 -83 150 -83
172 0 8 -4 14 -8 14 -4 0 -14 21 -21 48 -14 45 -19 58 -41 102 -5 11 -10 29
-10 39 0 11 -4 22 -9 25 -5 3 -11 20 -14 38 -3 18 -10 51 -17 73 -50 170 -73
410 -64 643 6 152 6 152 30 152 14 0 32 -4 42 -9z m4792 -925 c0 -16 -102
-220 -112 -224 -4 -2 -8 -12 -8 -23 0 -10 -4 -19 -9 -19 -5 0 -11 -8 -14 -17
-8 -24 -40 -77 -49 -81 -5 -2 -8 -12 -8 -23 0 -10 -4 -19 -9 -19 -5 0 -14 -13
-21 -30 -7 -16 -16 -30 -20 -30 -4 0 -13 -13 -20 -30 -7 -16 -15 -30 -19 -30
-3 0 -17 -18 -31 -40 -14 -22 -28 -40 -32 -40 -4 0 -10 -9 -13 -20 -4 -11 -16
-31 -28 -43 -13 -12 -33 -38 -47 -57 -13 -19 -31 -42 -40 -50 -8 -8 -28 -32
-44 -53 -15 -21 -78 -88 -138 -149 l-110 -110 -116 59 c-157 79 -286 147 -292
153 -3 3 -14 10 -25 16 -83 44 -111 60 -120 67 -21 16 -136 87 -141 87 -3 0
-14 9 -26 20 -12 11 -28 20 -35 20 -7 0 -13 4 -13 9 0 5 -13 14 -30 21 -16 7
-30 16 -30 20 0 4 -13 13 -30 20 -16 7 -30 16 -30 20 0 4 -13 13 -30 20 -16 7
-30 16 -30 20 0 4 -13 13 -30 20 -16 7 -30 16 -30 21 0 4 -8 10 -19 14 -10 3
-31 17 -47 30 -16 14 -35 25 -41 25 -7 0 -13 3 -13 8 0 4 -18 20 -40 36 -36
27 -38 30 -22 42 9 8 29 14 44 14 15 0 29 4 32 9 3 5 20 11 38 14 18 3 53 11
78 17 25 6 60 14 78 17 18 3 35 9 38 14 3 5 18 9 34 9 16 0 32 5 35 10 3 6 21
10 40 10 19 0 37 5 40 10 3 6 24 10 45 10 21 0 41 4 44 9 3 5 23 11 43 14 21
3 59 10 86 16 97 22 143 32 192 42 28 5 73 14 100 20 28 5 75 14 105 19 30 5
80 14 110 20 92 19 300 45 468 59 63 5 116 12 120 15 3 3 47 6 99 6 72 0 93
-3 93 -14z m625 -36 c3 -5 19 -10 35 -10 16 0 32 -4 35 -10 3 -5 15 -10 26
-10 10 0 27 -4 37 -9 9 -5 41 -19 70 -32 28 -12 52 -26 52 -30 0 -4 9 -10 20
-14 56 -18 140 -135 163 -229 19 -76 8 -368 -14 -382 -5 -3 -9 -20 -9 -39 0
-19 -4 -37 -10 -40 -5 -3 -10 -17 -10 -30 0 -13 -4 -27 -10 -30 -5 -3 -10 -19
-10 -36 0 -16 -4 -29 -10 -29 -5 0 -10 -7 -10 -16 0 -15 -57 -133 -70 -144 -3
-3 -17 -21 -30 -40 -78 -111 -216 -200 -355 -230 -71 -15 -334 -16 -403 -2
-26 6 -74 16 -107 22 -33 7 -71 16 -85 20 -14 4 -45 13 -70 20 -57 16 -100 31
-100 37 0 2 15 19 34 38 19 18 47 51 62 72 16 21 40 49 54 63 14 14 37 41 50
60 13 19 27 37 30 40 3 3 17 21 30 40 13 19 27 37 30 40 3 3 17 21 30 40 13
19 30 41 37 48 7 7 13 17 13 21 0 4 11 21 25 37 14 16 25 35 25 42 0 6 4 12 9
12 5 0 14 14 21 30 7 17 16 30 20 30 4 0 10 8 13 18 6 17 37 72 47 82 10 10
41 65 47 83 3 9 9 17 14 17 5 0 9 9 9 20 0 11 3 20 8 20 8 0 32 49 32 67 0 7
5 13 10 13 6 0 10 9 10 20 0 11 5 20 10 20 6 0 10 6 10 13 0 7 13 39 30 72 16
33 30 68 30 78 0 9 4 17 8 17 4 0 14 21 21 48 8 26 18 53 24 60 11 14 63 16
72 2z m-3225 -520 c0 -5 6 -10 14 -10 7 0 27 -13 44 -30 18 -16 36 -30 40 -30
5 0 17 -8 28 -18 10 -10 35 -29 54 -42 19 -13 44 -32 54 -42 11 -10 24 -18 29
-18 5 0 17 -8 26 -18 9 -9 28 -23 44 -31 15 -8 27 -18 27 -23 0 -4 6 -8 13 -8
6 0 28 -14 47 -30 19 -16 41 -30 48 -30 6 0 12 -4 12 -8 0 -5 12 -15 28 -23
15 -8 36 -22 46 -31 11 -10 26 -18 33 -18 7 0 13 -4 13 -8 0 -5 12 -15 28 -23
15 -8 36 -22 46 -31 11 -10 24 -18 28 -18 5 0 18 -9 30 -20 12 -11 28 -20 35
-20 7 0 13 -4 13 -10 0 -5 6 -10 13 -10 7 0 22 -8 33 -17 19 -17 31 -24 87
-55 12 -7 24 -15 27 -18 3 -3 15 -11 28 -17 12 -7 32 -19 45 -25 12 -7 24 -15
27 -18 10 -10 65 -41 83 -47 9 -3 17 -9 17 -14 0 -5 9 -9 19 -9 11 0 21 -3 23
-7 4 -10 57 -42 81 -50 9 -3 17 -9 17 -14 0 -5 9 -9 20 -9 11 0 20 -4 20 -10
0 -5 6 -10 13 -10 20 -1 57 -34 49 -45 -4 -6 -23 -22 -42 -35 -19 -13 -37 -27
-40 -30 -3 -3 -21 -17 -40 -30 -19 -13 -41 -30 -48 -37 -7 -7 -26 -20 -42 -30
-17 -9 -30 -21 -30 -25 0 -4 -6 -8 -13 -8 -7 0 -23 -9 -35 -20 -12 -11 -25
-20 -30 -20 -4 0 -17 -8 -28 -17 -19 -17 -31 -24 -86 -55 -13 -7 -25 -16 -28
-19 -3 -3 -25 -16 -50 -30 -25 -13 -47 -26 -50 -29 -3 -3 -14 -10 -25 -16 -89
-47 -111 -60 -115 -65 -10 -12 -492 -249 -506 -249 -8 0 -14 -4 -14 -10 0 -5
-6 -10 -13 -10 -8 0 -41 -13 -75 -30 -78 -37 -93 -37 -147 0 -24 17 -48 30
-54 30 -6 0 -11 4 -11 9 0 5 -8 11 -17 14 -23 7 -72 37 -97 60 -11 9 -26 17
-33 17 -7 0 -13 4 -13 9 0 5 -13 14 -30 21 -16 7 -30 16 -30 20 0 4 -13 13
-30 20 -16 7 -30 16 -30 20 0 4 -13 13 -30 20 -16 7 -30 16 -30 20 0 4 -13 13
-30 20 -16 7 -30 15 -30 19 0 3 -18 17 -40 31 -22 14 -40 28 -40 31 0 4 -13
12 -30 19 -16 7 -30 15 -30 19 0 4 -13 15 -30 24 -16 10 -35 23 -42 30 -7 7
-29 24 -48 37 -19 13 -42 31 -50 40 -8 9 -31 27 -50 40 -19 13 -42 31 -50 40
-8 8 -35 31 -60 50 -129 101 -508 482 -577 580 -10 14 -30 38 -45 54 -42 44
-37 54 35 60 148 13 400 49 537 76 30 6 73 13 95 16 22 3 49 9 60 14 19 8 42
13 140 26 22 4 44 10 49 15 6 5 27 9 47 9 21 0 41 5 44 10 3 6 24 10 46 10 21
0 39 5 39 10 0 6 18 10 40 10 22 0 40 5 40 10 0 6 18 10 40 10 22 0 40 5 40
10 0 6 15 10 34 10 19 0 38 5 41 10 3 6 19 10 35 10 16 0 32 5 35 10 3 6 19
10 35 10 16 0 32 5 35 10 3 6 17 10 30 10 13 0 27 5 30 10 3 6 19 10 36 10 16
0 29 5 29 10 0 6 9 10 20 10 11 0 20 -4 20 -10z"/>
</g>
</svg>
